<svg width="159" height="47" viewBox="0 0 159 47" fill="none" xmlns="http://www.w3.org/2000/svg">
<path d="M157.95 41.1244C157.95 43.5652 155.928 45.5423 153.427 45.5423H5.41071C2.91092 45.5423 0.881836 43.5652 0.881836 41.1244V5.89249C0.881836 3.4528 2.91092 1.46875 5.41071 1.46875H153.425C155.928 1.46875 157.948 3.4528 157.948 5.89249L157.95 41.1244Z" fill="black"/>
<path d="M152.95 1.52275C155.674 1.52275 157.89 3.67974 157.89 6.33052V40.682C157.89 43.3328 155.674 45.4898 152.95 45.4898H5.88269C3.159 45.4898 0.9427 43.3328 0.9427 40.682V6.33052C0.9427 3.67974 3.159 1.52275 5.88269 1.52275H152.95ZM152.95 0.605282H5.88269C2.64868 0.605282 0 3.18307 0 6.33052V40.682C0 43.8294 2.64868 46.4072 5.88269 46.4072H152.95C156.184 46.4072 158.833 43.8294 158.833 40.682V6.33052C158.833 3.18307 156.184 0.605282 152.95 0.605282Z" fill="#A6A6A6"/>
<path d="M35.4464 23.2595C35.4123 19.569 38.5513 17.7736 38.6948 17.69C36.917 15.1674 34.1616 14.8228 33.1933 14.7953C30.8791 14.5583 28.6342 16.143 27.4553 16.143C26.2529 16.143 24.4375 14.8182 22.4809 14.8571C19.9631 14.8949 17.6077 16.3136 16.3159 18.5167C13.6498 23.0087 15.6382 29.6099 18.1924 33.2409C19.4702 35.0191 20.9632 37.0047 22.9174 36.9348C24.8293 36.8581 25.5435 35.7485 27.8506 35.7485C30.1367 35.7485 30.8073 36.9348 32.8003 36.8901C34.8522 36.8581 36.1441 35.1039 37.3771 33.3096C38.8536 31.2714 39.4466 29.2641 39.4701 29.1611C39.4219 29.145 35.4852 27.6828 35.4464 23.2595Z" fill="white"/>
<path d="M31.6815 12.4067C32.7097 11.1552 33.4133 9.45249 33.218 7.72461C31.7297 7.78873 29.8684 8.72653 28.7966 9.95058C27.8483 11.0292 27.0012 12.7972 27.22 14.4598C28.8919 14.5812 30.6084 13.6388 31.6815 12.4067Z" fill="white"/>
<path d="M57.7094 12.0661C57.7094 13.4138 57.2941 14.4284 56.4647 15.1097C55.6964 15.7383 54.6046 16.0532 53.1904 16.0532C52.4891 16.0532 51.8891 16.0234 51.3867 15.9639V8.60006C52.0421 8.49701 52.748 8.44434 53.5104 8.44434C54.8575 8.44434 55.8729 8.72945 56.5576 9.29969C57.3247 9.94435 57.7094 10.8661 57.7094 12.0661ZM56.4094 12.0993C56.4094 11.2257 56.1717 10.5558 55.6964 10.0886C55.2211 9.62259 54.5269 9.389 53.6127 9.389C53.2245 9.389 52.8939 9.41419 52.6197 9.46686V15.065C52.7715 15.0879 53.0492 15.0982 53.4527 15.0982C54.3963 15.0982 55.1246 14.8429 55.6376 14.3322C56.1505 13.8215 56.4094 13.0772 56.4094 12.0993Z" fill="white"/>
<path d="M64.603 13.2436C64.603 14.0738 64.3594 14.754 63.8723 15.2876C63.3617 15.836 62.6852 16.1097 61.8405 16.1097C61.0263 16.1097 60.378 15.8475 59.8945 15.3208C59.4121 14.7952 59.1709 14.1322 59.1709 13.333C59.1709 12.4971 59.4191 11.8112 59.918 11.2787C60.4169 10.7463 61.0875 10.4795 61.9322 10.4795C62.7464 10.4795 63.4006 10.7417 63.8959 11.2673C64.3665 11.778 64.603 12.4375 64.603 13.2436ZM63.3241 13.2826C63.3241 12.7845 63.2135 12.3574 62.9935 12.0013C62.7346 11.5707 62.3664 11.3555 61.8875 11.3555C61.3922 11.3555 61.0157 11.5707 60.7569 12.0013C60.5357 12.3574 60.4263 12.7913 60.4263 13.3043C60.4263 13.8024 60.5369 14.2295 60.7569 14.5856C61.0239 15.0162 61.3957 15.2314 61.8758 15.2314C62.3464 15.2314 62.7158 15.0127 62.9817 14.5742C63.21 14.2112 63.3241 13.7807 63.3241 13.2826Z" fill="white"/>
<path d="M73.8453 10.5894L72.1099 15.9871H70.9805L70.2616 13.6432C70.0792 13.0581 69.931 12.4764 69.8157 11.8993H69.7933C69.6863 12.4924 69.538 13.073 69.3474 13.6432L68.5838 15.9871H67.4414L65.8096 10.5894H67.0767L67.7038 13.1554C67.8556 13.7623 67.9803 14.3405 68.0803 14.8879H68.1026C68.1944 14.4367 68.3462 13.8619 68.5603 13.1669L69.3474 10.5905H70.3522L71.1063 13.1119C71.2887 13.7268 71.4369 14.3188 71.5511 14.889H71.5852C71.6687 14.3337 71.7946 13.7417 71.9617 13.1119L72.6347 10.5905H73.8453V10.5894Z" fill="white"/>
<path d="M80.2384 15.9872H79.0054V12.8956C79.0054 11.9429 78.6336 11.4665 77.8877 11.4665C77.5218 11.4665 77.2265 11.5971 76.997 11.8593C76.77 12.1215 76.6547 12.4307 76.6547 12.7845V15.9861H75.4217V12.1318C75.4217 11.6578 75.4064 11.1436 75.377 10.5871H76.4605L76.5182 11.431H76.5523C76.6959 11.1688 76.91 10.9524 77.1912 10.7795C77.5253 10.578 77.8994 10.4761 78.3089 10.4761C78.8266 10.4761 79.2572 10.6387 79.5995 10.965C80.0254 11.3646 80.2384 11.9612 80.2384 12.7536V15.9872Z" fill="white"/>
<path d="M83.6381 15.9873H82.4062V8.11279H83.6381V15.9873Z" fill="white"/>
<path d="M90.8969 13.2436C90.8969 14.0738 90.6534 14.754 90.1663 15.2876C89.6557 15.836 88.978 16.1097 88.1344 16.1097C87.3191 16.1097 86.6708 15.8475 86.1884 15.3208C85.706 14.7952 85.4648 14.1322 85.4648 13.333C85.4648 12.4971 85.7131 11.8112 86.2119 11.2787C86.7108 10.7463 87.3814 10.4795 88.225 10.4795C89.0403 10.4795 89.6933 10.7417 90.1898 11.2673C90.6604 11.778 90.8969 12.4375 90.8969 13.2436ZM89.6168 13.2826C89.6168 12.7845 89.5063 12.3574 89.2862 12.0013C89.0286 11.5707 88.6591 11.3555 88.1815 11.3555C87.685 11.3555 87.3085 11.5707 87.0508 12.0013C86.8296 12.3574 86.7202 12.7913 86.7202 13.3043C86.7202 13.8024 86.8308 14.2295 87.0508 14.5856C87.3179 15.0162 87.6897 15.2314 88.1697 15.2314C88.6403 15.2314 89.0086 15.0127 89.2745 14.5742C89.5039 14.2112 89.6168 13.7807 89.6168 13.2826Z" fill="white"/>
<path d="M96.8647 15.9872H95.7576L95.6658 15.3654H95.6317C95.2529 15.8612 94.7128 16.1097 94.0116 16.1097C93.4881 16.1097 93.0645 15.946 92.7457 15.6208C92.4562 15.3253 92.3115 14.9578 92.3115 14.5215C92.3115 13.862 92.5939 13.3593 93.1622 13.0112C93.7292 12.6631 94.5269 12.4925 95.5541 12.5005V12.3997C95.5541 11.6887 95.1705 11.3337 94.4022 11.3337C93.8551 11.3337 93.3728 11.4677 92.9563 11.7333L92.7057 10.9455C93.221 10.6352 93.8575 10.4795 94.6081 10.4795C96.0576 10.4795 96.7847 11.2238 96.7847 12.7123V14.7001C96.7847 15.2395 96.8118 15.6689 96.8647 15.9872ZM95.5846 14.1322V13.2997C94.2246 13.2768 93.5445 13.6398 93.5445 14.3875C93.5445 14.6692 93.6222 14.8799 93.781 15.0208C93.9398 15.1616 94.1422 15.2314 94.3834 15.2314C94.654 15.2314 94.907 15.1479 95.1376 14.9818C95.3693 14.8146 95.5117 14.6028 95.5646 14.3429C95.5776 14.2845 95.5846 14.2135 95.5846 14.1322Z" fill="white"/>
<path d="M103.872 15.9873H102.777L102.72 15.1205H102.686C102.336 15.78 101.741 16.1098 100.904 16.1098C100.236 16.1098 99.6796 15.8545 99.2384 15.3438C98.7972 14.8331 98.5771 14.1701 98.5771 13.356C98.5771 12.4823 98.816 11.7747 99.296 11.2342C99.7607 10.7304 100.33 10.4785 101.008 10.4785C101.753 10.4785 102.274 10.7224 102.57 11.2113H102.594V8.11279H103.828V14.5331C103.828 15.0587 103.842 15.543 103.872 15.9873ZM102.594 13.7109V12.8109C102.594 12.6552 102.582 12.5292 102.56 12.4331C102.49 12.1445 102.341 11.9018 102.114 11.706C101.884 11.5102 101.608 11.4117 101.289 11.4117C100.829 11.4117 100.469 11.5892 100.204 11.9453C99.9419 12.3014 99.809 12.756 99.809 13.3113C99.809 13.8449 99.9349 14.2777 100.188 14.6109C100.455 14.9659 100.815 15.1434 101.266 15.1434C101.67 15.1434 101.994 14.9957 102.24 14.6991C102.477 14.4254 102.594 14.0957 102.594 13.7109Z" fill="white"/>
<path d="M114.416 13.2436C114.416 14.0738 114.173 14.754 113.686 15.2876C113.175 15.836 112.5 16.1097 111.654 16.1097C110.841 16.1097 110.193 15.8475 109.708 15.3208C109.226 14.7952 108.984 14.1322 108.984 13.333C108.984 12.4971 109.233 11.8112 109.731 11.2787C110.23 10.7463 110.901 10.4795 111.747 10.4795C112.56 10.4795 113.215 10.7417 113.709 11.2673C114.18 11.778 114.416 12.4375 114.416 13.2436ZM113.139 13.2826C113.139 12.7845 113.028 12.3574 112.808 12.0013C112.548 11.5707 112.181 11.3555 111.701 11.3555C111.207 11.3555 110.83 11.5707 110.57 12.0013C110.349 12.3574 110.24 12.7913 110.24 13.3043C110.24 13.8024 110.35 14.2295 110.57 14.5856C110.837 15.0162 111.209 15.2314 111.689 15.2314C112.16 15.2314 112.53 15.0127 112.796 14.5742C113.023 14.2112 113.139 13.7807 113.139 13.2826Z" fill="white"/>
<path d="M121.046 15.9872H119.814V12.8956C119.814 11.9429 119.442 11.4665 118.695 11.4665C118.329 11.4665 118.034 11.5971 117.806 11.8593C117.577 12.1215 117.463 12.4307 117.463 12.7845V15.9861H116.229V12.1318C116.229 11.6578 116.215 11.1436 116.186 10.5871H117.268L117.326 11.431H117.36C117.504 11.1688 117.719 10.9524 117.999 10.7795C118.334 10.578 118.707 10.4761 119.117 10.4761C119.634 10.4761 120.065 10.6387 120.407 10.965C120.834 11.3646 121.046 11.9612 121.046 12.7536V15.9872Z" fill="white"/>
<path d="M129.344 11.4888H127.986V14.1109C127.986 14.7773 128.227 15.1105 128.705 15.1105C128.926 15.1105 129.11 15.0922 129.254 15.0544L129.286 15.9648C129.042 16.0541 128.722 16.0987 128.328 16.0987C127.841 16.0987 127.462 15.9544 127.188 15.6659C126.913 15.3773 126.776 14.8918 126.776 14.2105V11.4888H125.966V10.5899H126.776V9.60057L127.985 9.24561V10.5887H129.342V11.4888H129.344Z" fill="white"/>
<path d="M135.872 15.9873H134.638V12.9186C134.638 11.951 134.266 11.4666 133.521 11.4666C132.949 11.4666 132.559 11.7472 132.345 12.3083C132.308 12.4262 132.287 12.5705 132.287 12.7399V15.9861H131.055V8.11279H132.287V11.3659H132.311C132.699 10.7739 133.255 10.4785 133.977 10.4785C134.487 10.4785 134.91 10.6411 135.245 10.9674C135.663 11.3739 135.872 11.9785 135.872 12.7777V15.9873Z" fill="white"/>
<path d="M142.605 13.0335C142.605 13.2488 142.588 13.4297 142.559 13.5774H138.861C138.877 14.111 139.054 14.5175 139.396 14.7992C139.709 15.0511 140.113 15.177 140.607 15.177C141.154 15.177 141.653 15.0923 142.102 14.9217L142.295 15.7553C141.769 15.9774 141.15 16.0885 140.434 16.0885C139.575 16.0885 138.899 15.8423 138.409 15.3499C137.917 14.8576 137.674 14.1969 137.674 13.3678C137.674 12.5537 137.901 11.8758 138.359 11.3354C138.836 10.7583 139.482 10.4697 140.298 10.4697C141.095 10.4697 141.701 10.7583 142.111 11.3354C142.441 11.7934 142.605 12.3602 142.605 13.0335ZM141.428 12.7232C141.438 12.3671 141.356 12.0602 141.189 11.8014C140.975 11.4682 140.649 11.301 140.208 11.301C139.806 11.301 139.477 11.4636 139.227 11.79C139.022 12.0499 138.901 12.3602 138.861 12.7232H141.428Z" fill="white"/>
<path d="M63.1159 36.6778H60.4439L58.9803 32.2018H53.893L52.4988 36.6778H49.8975L54.9377 21.4395H58.0509L63.1159 36.6778ZM58.5391 30.3239L57.2155 26.3448C57.0755 25.9384 56.8131 24.9811 56.4261 23.4742H56.379C56.2249 24.1223 55.9766 25.0796 55.6354 26.3448L54.3354 30.3239H58.5391Z" fill="white"/>
<path d="M76.0775 31.0483C76.0775 32.917 75.5586 34.3941 74.5209 35.4785C73.5914 36.4437 72.4372 36.9258 71.0595 36.9258C69.5724 36.9258 68.5041 36.406 67.8535 35.3662H67.8064V41.1545H65.298V29.3066C65.298 28.1318 65.2663 26.9261 65.2051 25.6894H67.4111L67.5511 27.4311H67.5982C68.4347 26.1188 69.7042 25.4639 71.4078 25.4639C72.7396 25.4639 73.8514 25.9757 74.7409 27.0005C75.6327 28.0265 76.0775 29.3754 76.0775 31.0483ZM73.522 31.1376C73.522 30.0681 73.2749 29.1864 72.7784 28.4925C72.2361 27.7689 71.5078 27.407 70.5948 27.407C69.9759 27.407 69.4135 27.6085 68.9112 28.0059C68.4076 28.4066 68.0782 28.9299 67.9241 29.578C67.8464 29.8803 67.8076 30.1277 67.8076 30.3223V32.1544C67.8076 32.9536 68.0594 33.6281 68.5629 34.1788C69.0665 34.7296 69.7206 35.0044 70.5254 35.0044C71.4701 35.0044 72.2055 34.6494 72.7314 33.9418C73.2585 33.233 73.522 32.2987 73.522 31.1376Z" fill="white"/>
<path d="M89.0636 31.0483C89.0636 32.917 88.5447 34.3941 87.5059 35.4785C86.5776 36.4437 85.4234 36.9258 84.0457 36.9258C82.5585 36.9258 81.4902 36.406 80.8408 35.3662H80.7937V41.1545H78.2853V29.3066C78.2853 28.1318 78.2536 26.9261 78.1924 25.6894H80.3984L80.5384 27.4311H80.5855C81.4208 26.1188 82.6903 25.4639 84.3951 25.4639C85.7258 25.4639 86.8376 25.9757 87.7294 27.0005C88.6177 28.0265 89.0636 29.3754 89.0636 31.0483ZM86.5082 31.1376C86.5082 30.0681 86.2599 29.1864 85.7634 28.4925C85.221 27.7689 84.4951 27.407 83.5809 27.407C82.9609 27.407 82.3997 27.6085 81.8961 28.0059C81.3926 28.4066 81.0643 28.9299 80.9102 29.578C80.8337 29.8803 80.7937 30.1277 80.7937 30.3223V32.1544C80.7937 32.9536 81.0455 33.6281 81.5467 34.1788C82.0502 34.7285 82.7044 35.0044 83.5115 35.0044C84.4563 35.0044 85.1916 34.6494 85.7175 33.9418C86.2446 33.233 86.5082 32.2987 86.5082 31.1376Z" fill="white"/>
<path d="M103.582 32.4046C103.582 33.7008 103.119 34.7554 102.191 35.5695C101.171 36.4592 99.7509 36.9035 97.926 36.9035C96.2412 36.9035 94.8906 36.5874 93.8682 35.9542L94.4494 33.9195C95.5506 34.5676 96.7589 34.8928 98.0755 34.8928C99.0202 34.8928 99.7556 34.6844 100.284 34.2699C100.81 33.8554 101.072 33.2989 101.072 32.605C101.072 31.9866 100.856 31.4656 100.421 31.0431C99.9897 30.6206 99.2685 30.2278 98.2614 29.8649C95.52 28.8698 94.1505 27.4122 94.1505 25.4954C94.1505 24.2427 94.6306 23.2156 95.5918 22.4163C96.5495 21.6159 97.8272 21.2163 99.425 21.2163C100.85 21.2163 102.033 21.4579 102.978 21.94L102.351 23.9301C101.469 23.4629 100.471 23.2293 99.3544 23.2293C98.472 23.2293 97.7825 23.4411 97.2884 23.8625C96.8707 24.2392 96.6613 24.6984 96.6613 25.2423C96.6613 25.8446 96.9001 26.3427 97.3801 26.7343C97.7978 27.0961 98.5567 27.4877 99.6579 27.9103C101.005 28.4381 101.995 29.0553 102.631 29.763C103.265 30.4683 103.582 31.3511 103.582 32.4046Z" fill="white"/>
<path d="M111.875 27.5225H109.11V32.8573C109.11 34.2142 109.597 34.8921 110.573 34.8921C111.022 34.8921 111.394 34.8543 111.688 34.7787L111.757 36.6325C111.263 36.8123 110.612 36.9028 109.806 36.9028C108.816 36.9028 108.042 36.6085 107.483 36.0211C106.926 35.4325 106.646 34.4455 106.646 33.0588V27.5202H104.999V25.6882H106.646V23.6763L109.11 22.9526V25.6882H111.875V27.5225Z" fill="white"/>
<path d="M124.35 31.0932C124.35 32.7822 123.853 34.1688 122.863 35.2532C121.824 36.3696 120.445 36.9261 118.726 36.9261C117.069 36.9261 115.75 36.3914 114.767 35.3219C113.783 34.2524 113.292 32.9024 113.292 31.2753C113.292 29.5726 113.797 28.178 114.813 27.0936C115.826 26.0081 117.193 25.4653 118.912 25.4653C120.568 25.4653 121.901 26.0001 122.907 27.0707C123.87 28.1093 124.35 29.4501 124.35 31.0932ZM121.747 31.1723C121.747 30.1589 121.525 29.2898 121.074 28.565C120.548 27.6879 119.797 27.2505 118.822 27.2505C117.814 27.2505 117.048 27.689 116.522 28.565C116.072 29.2909 115.849 30.1738 115.849 31.2181C115.849 32.2314 116.072 33.1005 116.522 33.8242C117.065 34.7013 117.822 35.1387 118.8 35.1387C119.758 35.1387 120.51 34.6921 121.052 33.8013C121.514 33.0627 121.747 32.1845 121.747 31.1723Z" fill="white"/>
<path d="M132.503 27.8364C132.255 27.7918 131.99 27.7689 131.713 27.7689C130.83 27.7689 130.148 28.0929 129.668 28.7421C129.25 29.3147 129.041 30.0383 129.041 30.912V36.6773H126.533L126.557 29.1498C126.557 27.8834 126.525 26.7303 126.463 25.6906H128.648L128.739 27.7929H128.809C129.074 27.0704 129.491 26.4887 130.063 26.0524C130.622 25.6597 131.226 25.4639 131.876 25.4639C132.108 25.4639 132.317 25.4799 132.503 25.5085V27.8364Z" fill="white"/>
<path d="M143.721 30.6641C143.721 31.1015 143.692 31.4702 143.63 31.7714H136.105C136.134 32.8569 136.498 33.6871 137.196 34.2596C137.831 34.7714 138.651 35.0279 139.658 35.0279C140.772 35.0279 141.788 34.855 142.703 34.5081L143.096 36.2027C142.027 36.6562 140.766 36.8817 139.311 36.8817C137.56 36.8817 136.186 36.3802 135.186 35.3783C134.188 34.3764 133.688 33.0309 133.688 31.3431C133.688 29.6863 134.153 28.3065 135.083 27.2061C136.058 26.0313 137.374 25.4438 139.031 25.4438C140.658 25.4438 141.89 26.0313 142.726 27.2061C143.389 28.1393 143.721 29.2935 143.721 30.6641ZM141.33 30.0309C141.346 29.3072 141.183 28.682 140.843 28.1542C140.408 27.4752 139.741 27.1362 138.844 27.1362C138.024 27.1362 137.356 27.4671 136.847 28.1313C136.429 28.6591 136.181 29.2924 136.105 30.0298H141.33V30.0309Z" fill="white"/>
</svg>
