<svg width="39" height="39" viewBox="0 0 39 39" fill="none" xmlns="http://www.w3.org/2000/svg">
<g clip-path="url(#clip0_3111_25625)">
<g clip-path="url(#clip1_3111_25625)">
<path d="M7.9187 20.7078V30.5719C7.9187 30.8779 8.04405 31.1712 8.26719 31.3876C8.4903 31.604 8.79291 31.7255 9.10845 31.7255H30.5239C30.8395 31.7255 31.1421 31.604 31.3652 31.3876C31.5884 31.1712 31.7137 30.8779 31.7137 30.5719V20.7078" stroke="white" stroke-width="2.22086" stroke-linecap="round" stroke-linejoin="round"/>
<path d="M8.81038 6.34448H30.8207C31.0788 6.34654 31.3295 6.42894 31.5355 6.57953C31.7417 6.7301 31.8926 6.94093 31.9659 7.18091L34.0925 14.4204H5.53857L7.66524 7.18091C7.73853 6.94093 7.88936 6.7301 8.09553 6.57953C8.30169 6.42894 8.55229 6.34654 8.81038 6.34448Z" stroke="white" stroke-width="2.22086" stroke-linecap="round" stroke-linejoin="round"/>
<path d="M15.0566 14.4197V16.7271C15.0566 17.951 14.5552 19.1247 13.6627 19.9902C12.7702 20.8557 11.5597 21.3419 10.2976 21.3419C9.0354 21.3419 7.82494 20.8557 6.93245 19.9902C6.03997 19.1247 5.53857 17.951 5.53857 16.7271V14.4197" stroke="white" stroke-width="2.22086" stroke-linecap="round" stroke-linejoin="round"/>
<path d="M24.5746 14.4197V16.7271C24.5746 17.951 24.0733 19.1247 23.1808 19.9902C22.2882 20.8557 21.0778 21.3419 19.8156 21.3419C18.5535 21.3419 17.343 20.8557 16.4505 19.9902C15.558 19.1247 15.0566 17.951 15.0566 16.7271V14.4197" stroke="white" stroke-width="2.22086" stroke-linecap="round" stroke-linejoin="round"/>
<path d="M34.0932 14.4197V16.7271C34.0932 17.951 33.5917 19.1247 32.6993 19.9902C31.8068 20.8557 30.5963 21.3419 29.3342 21.3419C28.0719 21.3419 26.8616 20.8557 25.9689 19.9902C25.0765 19.1247 24.5752 17.951 24.5752 16.7271V14.4197" stroke="white" stroke-width="2.22086" stroke-linecap="round" stroke-linejoin="round"/>
</g>
</g>
<defs>
<clipPath id="clip0_3111_25625">
<rect width="38.0719" height="38.0719" fill="white" transform="translate(0.780273)"/>
</clipPath>
<clipPath id="clip1_3111_25625">
<rect width="38.0719" height="38.0719" fill="white" transform="translate(0.780273 -0.000244141)"/>
</clipPath>
</defs>
</svg>
