<svg width="94" height="74" viewBox="0 0 94 74" fill="none" xmlns="http://www.w3.org/2000/svg">
<path d="M6.38867 47.4673L25.7457 66.8243L66.6107 25.9595L47.2535 6.60242" stroke="white" stroke-width="6.08333" stroke-linecap="round" stroke-linejoin="round"/>
<path d="M13.917 39.9403L24.6709 50.6941" stroke="white" stroke-width="6.08333" stroke-linecap="round" stroke-linejoin="round"/>
<path d="M22.5195 31.3373L33.2735 42.0912" stroke="white" stroke-width="6.08333" stroke-linecap="round" stroke-linejoin="round"/>
<path d="M31.123 22.7336L41.877 33.4876" stroke="white" stroke-width="6.08333" stroke-linecap="round" stroke-linejoin="round"/>
<path d="M39.7246 14.1309L50.4786 24.8847" stroke="white" stroke-width="6.08333" stroke-linecap="round" stroke-linejoin="round"/>
<path d="M19.2939 60.372L60.1589 19.5072" stroke="white" stroke-width="6.08333" stroke-linecap="round" stroke-linejoin="round"/>
<path d="M57.6006 40.7053L67.8662 50.9709L71.2881 47.5491L59.3115 35.5725H57.6006M73.8545 52.6819C73.8545 52.9088 73.7644 53.1264 73.6039 53.2868C73.4435 53.4472 73.2259 53.5374 72.999 53.5374C72.7721 53.5374 72.5545 53.4472 72.3941 53.2868C72.2337 53.1264 72.1436 52.9088 72.1436 52.6819C72.1436 52.455 72.2337 52.2374 72.3941 52.077C72.5545 51.9165 72.7721 51.8264 72.999 51.8264C73.2259 51.8264 73.4435 51.9165 73.6039 52.077C73.7644 52.2374 73.8545 52.455 73.8545 52.6819ZM86.6865 62.9475C86.6865 63.855 86.326 64.7254 85.6843 65.3671C85.0426 66.0089 84.1722 66.3694 83.2647 66.3694C82.3571 66.3694 81.4867 66.0089 80.845 65.3671C80.2033 64.7254 79.8428 63.855 79.8428 62.9475C79.8428 62.04 80.2033 61.1696 80.845 60.5279C81.4867 59.8862 82.3571 59.5256 83.2647 59.5256C84.1722 59.5256 85.0426 59.8862 85.6843 60.5279C86.326 61.1696 86.6865 62.04 86.6865 62.9475ZM66.1553 62.9475C66.1553 63.855 65.7948 64.7254 65.153 65.3671C64.5113 66.0089 63.6409 66.3694 62.7334 66.3694C61.8259 66.3694 60.9555 66.0089 60.3138 65.3671C59.672 64.7254 59.3115 63.855 59.3115 62.9475C59.3115 62.04 59.672 61.1696 60.3138 60.5279C60.9555 59.8862 61.8259 59.5256 62.7334 59.5256C63.6409 59.5256 64.5113 59.8862 65.153 60.5279C65.7948 61.1696 66.1553 62.04 66.1553 62.9475ZM65.5393 56.7197C64.6839 56.3262 63.7429 56.1038 62.7334 56.1038C60.9183 56.1038 59.1776 56.8248 57.8941 58.1082C56.6107 59.3917 55.8896 61.1324 55.8896 62.9475C55.8896 64.7626 56.6107 66.5033 57.8941 67.7868C59.1776 69.0702 60.9183 69.7913 62.7334 69.7913C64.5485 69.7913 66.2892 69.0702 67.5727 67.7868C68.8561 66.5033 69.5772 64.7626 69.5772 62.9475C69.5772 61.9381 69.3547 60.997 68.9612 60.1416L72.999 56.1038L77.0368 60.1416C76.6433 60.997 76.4209 61.9381 76.4209 62.9475C76.4209 64.7626 77.1419 66.5033 78.4254 67.7868C79.7088 69.0702 81.4496 69.7913 83.2647 69.7913C85.0797 69.7913 86.8205 69.0702 88.1039 67.7868C89.3874 66.5033 90.1084 64.7626 90.1084 62.9475C90.1084 61.1324 89.3874 59.3917 88.1039 58.1082C86.8205 56.8248 85.0797 56.1038 83.2647 56.1038C82.2552 56.1038 81.3142 56.3262 80.4587 56.7197L76.4209 52.6819L88.3975 40.7053V35.5725H86.6865L65.5393 56.7197Z" fill="white"/>
</svg>
