<?xml version="1.0" standalone="no"?>
<!DOCTYPE svg PUBLIC "-//W3C//DTD SVG 20010904//EN"
 "http://www.w3.org/TR/2001/REC-SVG-20010904/DTD/svg10.dtd">
<svg version="1.0" xmlns="http://www.w3.org/2000/svg"
 width="100.000000pt" height="100.000000pt" viewBox="0 0 100.000000 100.000000"
 preserveAspectRatio="xMidYMid meet">

<g transform="translate(0.000000,100.000000) scale(0.100000,-0.100000)"
fill="#000000" stroke="none">
<path d="M500 836 c-85 -22 -156 -80 -184 -148 -23 -53 -20 -123 9 -222 35
-120 33 -151 -9 -191 -19 -17 -56 -38 -82 -45 l-48 -14 39 -18 c68 -30 124
-20 179 30 30 27 30 27 14 2 -25 -40 -62 -61 -119 -69 l-54 -8 49 -23 c69 -31
117 -36 171 -16 51 20 108 81 126 133 12 38 8 225 -6 258 -8 17 -3 15 24 -7
41 -35 53 -35 45 -3 -8 33 16 61 76 88 25 12 47 22 50 24 3 2 5 -12 4 -29 -1
-18 6 -48 15 -66 14 -30 14 -35 1 -45 -8 -7 -16 -23 -17 -37 -1 -14 -9 -42
-18 -64 -15 -35 -18 -38 -48 -32 -18 3 -37 2 -44 -2 -7 -4 -26 -38 -44 -75
-38 -82 -34 -88 59 -117 120 -37 230 -10 275 69 l20 33 -31 -16 c-50 -26 -64
-20 -31 13 36 36 39 58 4 35 -30 -19 -93 -12 -102 12 -3 9 0 61 7 117 10 84
10 113 -1 162 -7 33 -12 78 -10 101 2 32 -3 47 -24 72 -33 39 -57 47 -93 28
-37 -19 -102 -90 -136 -149 -16 -26 -30 -47 -33 -47 -3 0 -3 21 1 47 7 52 41
117 92 173 l34 38 -31 11 c-40 14 -71 13 -129 -3z m3 -118 c-19 -25 -43 -112
-43 -158 0 -25 6 -69 14 -99 17 -68 3 -53 -18 18 -19 64 -20 125 -4 172 13 40
48 93 56 85 2 -3 0 -11 -5 -18z m-114 -83 c-6 -22 -9 -63 -7 -92 3 -36 1 -50
-5 -44 -19 19 -20 115 -2 150 21 42 27 36 14 -14z m91 -367 c0 -31 -4 -59 -9
-62 -5 -3 -9 22 -10 57 0 34 -5 78 -11 97 -14 50 -11 51 11 5 11 -24 19 -62
19 -97z"/>
<path d="M57 801 c-41 -27 -46 -36 -10 -17 18 9 37 16 42 16 14 0 68 -111 65
-133 -1 -9 2 -15 6 -12 5 3 11 -4 15 -15 8 -25 22 -26 30 -1 4 12 -8 51 -31
100 -33 72 -40 81 -63 80 -14 0 -38 -8 -54 -18z"/>
<path d="M233 654 c-39 -82 -74 -159 -78 -172 -6 -22 -8 -22 -25 -7 -25 23
-72 16 -86 -13 -16 -31 -7 -61 22 -74 41 -19 67 2 99 81 16 40 32 74 37 77 15
9 8 -26 -17 -88 -30 -73 -31 -90 -7 -111 23 -21 56 -22 76 -1 33 32 10 94 -35
94 -10 0 -19 2 -19 4 0 3 25 78 55 168 31 89 54 169 53 177 -2 8 -35 -53 -75
-135z m-3 -84 c0 -5 -4 -10 -10 -10 -5 0 -10 5 -10 10 0 6 5 10 10 10 6 0 10
-4 10 -10z m-110 -105 c19 -23 4 -65 -23 -65 -44 0 -64 49 -29 69 24 14 38 13
52 -4z m124 -51 c31 -30 8 -69 -36 -62 -26 3 -37 41 -18 64 16 18 35 18 54 -2z"/>
<path d="M250 521 c0 -10 11 -43 24 -72 12 -30 26 -66 30 -81 6 -28 36 -40 36
-15 0 18 -74 187 -82 187 -5 0 -8 -8 -8 -19z"/>
</g>
</svg>
