<svg width="159" height="46" viewBox="0 0 159 46" fill="none" xmlns="http://www.w3.org/2000/svg">
<path d="M152.949 45.8018H5.88171C2.6477 45.8018 -0.000976562 43.224 -0.000976562 40.0765V5.72505C-0.000976562 2.5776 2.6477 -0.000191689 5.88171 -0.000191689H152.949C156.183 -0.000191689 158.832 2.5776 158.832 5.72505V40.0765C158.832 43.224 156.183 45.8018 152.949 45.8018Z" fill="black"/>
<path d="M152.949 0.917276C155.673 0.917276 157.889 3.07426 157.889 5.72505V40.0765C157.889 42.7273 155.673 44.8843 152.949 44.8843H5.88171C3.15803 44.8843 0.941724 42.7273 0.941724 40.0765V5.72505C0.941724 3.07426 3.15803 0.917276 5.88171 0.917276H152.949ZM152.949 -0.000191689H5.88171C2.6477 -0.000191689 -0.000976562 2.5776 -0.000976562 5.72505V40.0765C-0.000976562 43.224 2.6477 45.8018 5.88171 45.8018H152.949C156.183 45.8018 158.832 43.224 158.832 40.0765V5.72505C158.832 2.5776 156.183 -0.000191689 152.949 -0.000191689Z" fill="#A6A6A6"/>
<path d="M11.3938 8.63195C11.0482 8.98405 10.8481 9.53224 10.8481 10.2422V35.5649C10.8481 36.2749 11.0482 36.823 11.3938 37.1751L11.4791 37.2524L26.0593 23.0682V22.7332L11.4791 8.54893L11.3938 8.63195Z" fill="white"/>
<path d="M32.6789 27.7988L27.8242 23.0683V22.7334L32.6848 18.0029L32.7936 18.0645L38.5498 21.252C40.1926 22.1566 40.1926 23.6452 38.5498 24.5555L32.7936 27.7373L32.6789 27.7988Z" fill="white"/>
<path d="M31.9113 28.6179L26.9419 23.7815L12.2764 38.056C12.822 38.6142 13.7117 38.6814 14.7236 38.1232L31.9113 28.6179Z" fill="white"/>
<path d="M31.9113 17.1836L14.7236 7.67829C13.7117 7.1258 12.822 7.19307 12.2764 7.75128L26.9419 22.02L31.9113 17.1836Z" fill="white"/>
<path d="M55.7876 11.7292C55.7876 12.6853 55.4934 13.4511 54.914 14.0221C54.2478 14.6992 53.3801 15.0398 52.3168 15.0398C51.3005 15.0398 50.4328 14.6934 49.721 14.0107C49.0078 13.3179 48.6519 12.4677 48.6519 11.4501C48.6519 10.4324 49.0078 9.58222 49.721 8.89519C50.4328 8.20673 51.3005 7.86035 52.3168 7.86035C52.8227 7.86035 53.3051 7.96197 53.7654 8.15091C54.2242 8.34127 54.5978 8.59891 54.8684 8.91666L54.2536 9.52067C53.7816 8.97821 53.1389 8.71055 52.3168 8.71055C51.5756 8.71055 50.9329 8.96246 50.3872 9.47058C49.8475 9.98012 49.5769 10.64 49.5769 11.4501C49.5769 12.2602 49.8475 12.9258 50.3872 13.4353C50.9329 13.9377 51.5756 14.1953 52.3168 14.1953C53.1036 14.1953 53.7654 13.9377 54.2875 13.4296C54.6316 13.0932 54.8272 12.6295 54.8787 12.0369H52.3168V11.2096H55.7346C55.7758 11.3885 55.7876 11.5617 55.7876 11.7292Z" fill="white" stroke="white" stroke-width="0.0469764" stroke-miterlimit="10"/>
<path d="M61.2102 8.86111H57.9997V11.0367H60.894V11.864H57.9997V14.0396H61.2102V14.8826H57.0908V8.01807H61.2102V8.86111Z" fill="white" stroke="white" stroke-width="0.0469764" stroke-miterlimit="10"/>
<path d="M65.0368 14.8826H64.1279V8.86111H62.1587V8.01807H67.0075V8.86111H65.0368V14.8826Z" fill="white" stroke="white" stroke-width="0.0469764" stroke-miterlimit="10"/>
<path d="M70.5166 14.8826V8.01807H71.424V14.8826H70.5166Z" fill="white" stroke="white" stroke-width="0.0469764" stroke-miterlimit="10"/>
<path d="M75.446 14.8826H74.5444V8.86111H72.5679V8.01807H77.4225V8.86111H75.446V14.8826Z" fill="white" stroke="white" stroke-width="0.0469764" stroke-miterlimit="10"/>
<path d="M86.6028 13.9992C85.9071 14.6934 85.0453 15.0398 84.0173 15.0398C82.9834 15.0398 82.1216 14.6934 81.426 13.9992C80.7318 13.3065 80.3862 12.4563 80.3862 11.4501C80.3862 10.4439 80.7318 9.59367 81.426 8.90091C82.1216 8.20673 82.9834 7.86035 84.0173 7.86035C85.0394 7.86035 85.9013 8.20673 86.5969 8.90664C87.2969 9.60512 87.6425 10.4496 87.6425 11.4501C87.6425 12.4563 87.2969 13.3065 86.6028 13.9992ZM82.0981 13.4239C82.6217 13.9377 83.2585 14.1953 84.0173 14.1953C84.7703 14.1953 85.413 13.9377 85.9307 13.4239C86.4528 12.91 86.7175 12.2502 86.7175 11.4501C86.7175 10.65 86.4528 9.99014 85.9307 9.4763C85.413 8.96246 84.7703 8.70482 84.0173 8.70482C83.2585 8.70482 82.6217 8.96246 82.0981 9.4763C81.576 9.99014 81.3113 10.65 81.3113 11.4501C81.3113 12.2502 81.576 12.91 82.0981 13.4239Z" fill="white" stroke="white" stroke-width="0.0469764" stroke-miterlimit="10"/>
<path d="M88.9175 14.8826V8.01807H90.0205L93.4501 13.3569H93.4898L93.4501 12.0372V8.01807H94.3575V14.8826H93.4104L89.819 9.28048H89.7793L89.819 10.6059V14.8826H88.9175Z" fill="white" stroke="white" stroke-width="0.0469764" stroke-miterlimit="10"/>
<path d="M80.1625 24.9078C77.3991 24.9078 75.1416 26.9546 75.1416 29.7785C75.1416 32.5796 77.3991 34.6479 80.1625 34.6479C82.9317 34.6479 85.1892 32.5796 85.1892 29.7785C85.1892 26.9546 82.9317 24.9078 80.1625 24.9078ZM80.1625 32.7299C78.6462 32.7299 77.3417 31.5119 77.3417 29.7785C77.3417 28.0223 78.6462 26.8257 80.1625 26.8257C81.6787 26.8257 82.9891 28.0223 82.9891 29.7785C82.9891 31.5119 81.6787 32.7299 80.1625 32.7299ZM69.2074 24.9078C66.4381 24.9078 64.1865 26.9546 64.1865 29.7785C64.1865 32.5796 66.4381 34.6479 69.2074 34.6479C71.9752 34.6479 74.2283 32.5796 74.2283 29.7785C74.2283 26.9546 71.9752 24.9078 69.2074 24.9078ZM69.2074 32.7299C67.6897 32.7299 66.3808 31.5119 66.3808 29.7785C66.3808 28.0223 67.6897 26.8257 69.2074 26.8257C70.7237 26.8257 72.0282 28.0223 72.0282 29.7785C72.0282 31.5119 70.7237 32.7299 69.2074 32.7299ZM56.1714 26.4006V28.4703H61.2496C61.1011 29.6268 60.704 30.477 60.0951 31.0696C59.3539 31.7852 58.1994 32.5796 56.1714 32.5796C53.0462 32.5796 50.599 30.1249 50.599 27.0834C50.599 24.0418 53.0462 21.5871 56.1714 21.5871C57.8612 21.5871 59.0907 22.2298 59.9981 23.0628L61.4967 21.6043C60.2275 20.4249 58.5392 19.5189 56.1714 19.5189C51.8859 19.5189 48.2842 22.9125 48.2842 27.0834C48.2842 31.2542 51.8859 34.6479 56.1714 34.6479C58.4877 34.6479 60.2275 33.9093 61.5952 32.5238C62.9968 31.1598 63.4336 29.2418 63.4336 27.6931C63.4336 27.2122 63.3924 26.7699 63.3189 26.4006H56.1714ZM109.477 28.0051C109.064 26.9159 107.789 24.9078 105.192 24.9078C102.618 24.9078 100.475 26.8816 100.475 29.7785C100.475 32.5066 102.596 34.6479 105.439 34.6479C107.738 34.6479 109.064 33.2838 109.61 32.4894L107.904 31.383C107.335 32.1932 106.56 32.7299 105.439 32.7299C104.326 32.7299 103.527 32.2332 103.015 31.2542L109.708 28.5591L109.477 28.0051ZM102.653 29.6268C102.596 27.7489 104.152 26.7871 105.267 26.7871C106.14 26.7871 106.882 27.2122 107.129 27.8205L102.653 29.6268ZM97.2134 34.3516H99.4135V20.0385H97.2134V34.3516ZM93.6103 25.9927H93.5367C93.0426 25.4231 92.0999 24.9078 90.9057 24.9078C88.3997 24.9078 86.1084 27.049 86.1084 29.7943C86.1084 32.5238 88.3997 34.6479 90.9057 34.6479C92.0999 34.6479 93.0426 34.1283 93.5367 33.5415H93.6103V34.2399C93.6103 36.1021 92.5882 37.1026 90.9395 37.1026C89.5953 37.1026 88.7615 36.1579 88.4173 35.3635L86.504 36.1407C87.0555 37.4318 88.5159 39.0205 90.9395 39.0205C93.5191 39.0205 95.6957 37.5434 95.6957 33.9494V25.2041H93.6103V25.9927ZM91.094 32.7299C89.5777 32.7299 88.3085 31.4947 88.3085 29.7943C88.3085 28.0781 89.5777 26.8257 91.094 26.8257C92.5882 26.8257 93.7662 28.0781 93.7662 29.7943C93.7662 31.4947 92.5882 32.7299 91.094 32.7299ZM119.778 20.0385H114.516V34.3516H116.71V28.9283H119.778C122.215 28.9283 124.605 27.2122 124.605 24.4827C124.605 21.7546 122.209 20.0385 119.778 20.0385ZM119.835 26.9374H116.71V22.0294H119.835C121.474 22.0294 122.409 23.3534 122.409 24.4827C122.409 25.5905 121.474 26.9374 119.835 26.9374ZM133.399 24.8806C131.814 24.8806 130.165 25.5619 129.487 27.0719L131.434 27.8663C131.854 27.0719 132.624 26.8143 133.439 26.8143C134.577 26.8143 135.732 27.4799 135.749 28.655V28.8052C135.352 28.582 134.502 28.2513 133.457 28.2513C131.359 28.2513 129.223 29.3749 129.223 31.4718C129.223 33.3897 130.94 34.625 132.871 34.625C134.348 34.625 135.163 33.9766 135.674 33.2223H135.749V34.3287H137.869V28.8382C137.869 26.3005 135.921 24.8806 133.399 24.8806ZM133.135 32.7242C132.417 32.7242 131.417 32.3778 131.417 31.5119C131.417 30.404 132.664 29.9789 133.743 29.9789C134.71 29.9789 135.163 30.1865 135.749 30.4598C135.577 31.7852 134.405 32.7242 133.135 32.7242ZM145.59 25.194L143.067 31.3988H142.992L140.385 25.194H138.019L141.937 33.8649L139.701 38.6899H141.994L148.031 25.194H145.59ZM125.811 34.3516H128.011V20.0385H125.811V34.3516Z" fill="white"/>
</svg>
