<svg width="101" height="67" viewBox="0 0 101 67" fill="none" xmlns="http://www.w3.org/2000/svg">
<rect x="40.6953" y="3.15057" width="58.6222" height="54.7709" fill="black" stroke="white" stroke-width="3"/>
<line x1="39.1953" y1="14.4055" x2="100.267" y2="14.4055" stroke="white" stroke-width="2"/>
<line x1="39.7456" y1="28.7106" x2="100.818" y2="28.7106" stroke="white" stroke-width="2"/>
<line x1="39.7456" y1="44.1163" x2="100.818" y2="44.1163" stroke="white" stroke-width="2"/>
<line x1="51.2004" y1="15.4055" x2="51.2004" y2="59.4214" stroke="white" stroke-width="2"/>
<line x1="64.4036" y1="15.4055" x2="64.4036" y2="59.4214" stroke="white" stroke-width="2"/>
<line x1="77.6096" y1="15.4055" x2="77.6096" y2="59.4214" stroke="white" stroke-width="2"/>
<line x1="90.814" y1="15.4055" x2="90.814" y2="59.4214" stroke="white" stroke-width="2"/>
<line x1="48.5485" y1="2.40499e-08" x2="48.5485" y2="3.30119" stroke="white" stroke-width="1.1004"/>
<line x1="59.5524" y1="2.40499e-08" x2="59.5524" y2="3.30119" stroke="white" stroke-width="1.1004"/>
<line x1="70.5565" y1="2.40499e-08" x2="70.5565" y2="3.30119" stroke="white" stroke-width="1.1004"/>
<line x1="81.5609" y1="2.40499e-08" x2="81.5609" y2="3.30119" stroke="white" stroke-width="1.1004"/>
<line x1="92.5648" y1="2.40499e-08" x2="92.5648" y2="3.30119" stroke="white" stroke-width="1.1004"/>
<path d="M47.7799 28.1912C47.7799 31.1049 46.4313 34.8196 44.1434 38.9289C41.8861 42.9833 38.8508 47.1849 35.7762 51.0093C32.7076 54.8262 29.6337 58.2256 27.3244 60.673C26.3584 61.6967 25.528 62.5519 24.8899 63.1993C24.2519 62.5519 23.4215 61.6967 22.4555 60.673C20.1461 58.2256 17.0723 54.8262 14.0037 51.0093C10.929 47.1849 7.89373 42.9833 5.63648 38.9289C3.3486 34.8196 2 31.1049 2 28.1912C2 15.5494 12.2482 5.30127 24.8899 5.30127C37.5317 5.30127 47.7799 15.5494 47.7799 28.1912Z" fill="black" stroke="white" stroke-width="4"/>
<circle cx="24.8894" cy="21.2219" r="5.97358" fill="white"/>
</svg>
