<svg width="25" height="34" viewBox="0 0 25 34" fill="none" xmlns="http://www.w3.org/2000/svg">
<path d="M21.4471 4.01118H16.5245C15.635 4.01401 15.6683 5.33974 16.5245 5.33195H21.4471V6.00969H16.5245C15.6399 6.0019 15.6725 7.32692 16.5245 7.33046H21.4471V8.02307H16.5245C15.6399 8.02307 15.6725 9.34738 16.5245 9.34384H21.4471V10.0039H16.5245C15.6584 10.0102 15.6725 11.336 16.5245 11.3402H21.4471V12.0017H16.5245C15.6584 11.9988 15.6548 13.3224 16.5245 13.3224H21.4471V13.9825H16.5245C15.6584 13.9853 15.6548 15.3103 16.5245 15.304H21.4471V15.9803H16.5245C15.6584 15.9725 15.6548 17.2961 16.5245 17.301H21.4471V17.9597H16.5245C15.6584 17.9589 15.6725 19.2854 16.5245 19.2811H21.4471V32.1411C21.4499 34.1007 24.4264 34.0653 24.4349 32.1411V2.04666C24.4264 1.15151 23.6913 0.0198293 22.4818 0.0162883H16.5245C15.635 0.0169965 15.6683 1.34273 16.5245 1.33706L21.4471 1.35335V2.01196H16.5245C15.6364 2.00771 15.6697 3.33273 16.5245 3.33344H21.4471V4.01118ZM16.186 26.8106C16.1831 24.5231 13.8121 22.0629 10.9794 23.6563V14.9074L9.14727 0.478027C9.10903 0.0963136 8.78539 0.0063737 8.56797 0C8.34348 0.0063737 7.89378 0.0963136 7.84491 0.478027L6.02204 14.9074V23.6563C3.18928 22.0629 0.894751 24.5387 0.894043 26.7929C0.894751 28.7985 2.4386 30.4457 4.52776 30.4408C6.63249 30.4457 8.1466 28.5995 8.1466 26.7929V17.7047H8.85479V26.7929C8.85479 28.8155 10.4213 30.3126 12.162 30.4075C12.133 31.5165 12.4949 33.0986 13.1762 33.7261C13.975 34.4626 14.9261 33.5207 14.5359 32.7537C14.1591 32.0399 13.7894 31.6171 14.0897 30.0583C15.3446 29.4776 16.1831 28.2553 16.186 26.8106ZM4.60849 28.6101C3.61986 28.6037 2.82102 27.8021 2.81961 26.8106C2.82102 25.8198 3.61986 25.0146 4.60849 25.009C5.59004 25.0146 6.38959 25.8198 6.39667 26.8106C6.38959 27.8028 5.59004 28.6044 4.60849 28.6101ZM10.6784 26.8106C10.6847 25.8198 11.4829 25.0146 12.4673 25.009C13.4531 25.0146 14.2526 25.8198 14.2554 26.8106C14.2526 27.8021 13.4538 28.6037 12.4673 28.6101C11.4829 28.6044 10.684 27.8028 10.6784 26.8106Z" fill="white"/>
</svg>
