<svg width="35" height="34" viewBox="0 0 35 34" fill="none" xmlns="http://www.w3.org/2000/svg">
<path d="M11.5324 2.83301V7.08211M15.7815 2.83301V7.08211M20.0306 2.83301V7.08211M7.99146 5.66574H27.8206V12.0394L24.2797 16.9967V25.4949C24.2797 25.4949 24.2797 31.1603 17.906 31.1603C11.5324 31.1603 11.5324 25.4949 11.5324 25.4949V16.9967L7.99146 12.0394V5.66574Z" stroke="white" stroke-width="2.83273" stroke-linecap="round" stroke-linejoin="round"/>
<path d="M20.0306 21.9539C20.0306 20.7805 19.0794 19.8293 17.906 19.8293C16.7327 19.8293 15.7815 20.7805 15.7815 21.9539V24.7866C15.7815 25.96 16.7327 26.9112 17.906 26.9112C19.0794 26.9112 20.0306 25.96 20.0306 24.7866V21.9539Z" stroke="white" stroke-width="2.83273" stroke-linecap="round" stroke-linejoin="round"/>
<path d="M7.99146 12.0394H27.8206M24.2797 2.83301V7.08211" stroke="white" stroke-width="2.83273" stroke-linecap="round" stroke-linejoin="round"/>
</svg>
